<svg width="216" height="61" viewBox="0 0 216 61" fill="none" xmlns="http://www.w3.org/2000/svg">
<g id="Text">
<g id="Group">
<path id="Vector" d="M5.44351 4.46306C5.44351 3.68306 4.83451 3.22806 3.60433 3.11106C2.5812 2.98106 1.94783 2.89006 1.71641 2.81206C1.48499 2.73406 1.3632 2.55206 1.3632 2.27906C1.3632 2.18806 1.37537 2.11006 1.41191 2.04506C1.43627 1.98006 1.53371 1.92806 1.67988 1.87606C1.82604 1.82406 2.06964 1.78506 2.42286 1.73306C2.77608 1.68106 3.2511 1.62906 3.87228 1.56406C5.04157 1.43406 6.05251 1.33006 6.9173 1.23906C7.78208 1.14806 8.54942 1.07006 9.24369 1.03106C9.93795 0.992062 10.5591 0.953062 11.1316 0.940062C11.7041 0.927062 12.2522 0.914062 12.7759 0.914062C14.4446 0.914062 15.8209 1.00506 16.8928 1.17406C17.9768 1.34306 18.8903 1.60306 19.6576 1.94106C21.7648 3.00706 22.8123 4.74906 22.8123 7.18006C22.8123 9.61106 21.643 11.8341 19.3044 13.5501C18.805 13.9271 18.2326 14.2651 17.5992 14.5511C16.9537 14.8501 16.3568 15.0711 15.7966 15.2271C16.844 15.4481 17.7941 15.6821 18.6467 15.9551C19.4993 16.2151 20.2057 16.4881 20.7904 16.7741C22.2276 17.4891 23.3238 18.4771 24.079 19.7251C24.8342 20.9731 25.2239 22.3901 25.2239 23.9891C25.2239 25.2631 24.956 26.4591 24.4079 27.5511C23.8719 28.6431 23.1289 29.5921 22.1911 30.4111C21.2532 31.2171 20.1448 31.8541 18.8537 32.3091C17.5627 32.7641 16.162 32.9851 14.6394 32.9851H13.8477C13.6407 32.9851 13.3971 32.9591 13.1048 32.9201C12.8124 32.8681 12.4349 32.8161 11.9842 32.7511C11.5335 32.6861 10.9124 32.5821 10.1207 32.4261C9.65781 32.3611 9.15843 32.3091 8.64687 32.2571C8.1353 32.2051 7.67246 32.1921 7.27052 32.1921C7.00256 32.1921 6.66152 32.1921 6.22303 32.2181C5.78455 32.2311 5.33389 32.2441 4.88323 32.2701C4.43257 32.2831 4.00626 32.3091 3.6165 32.3351C3.22674 32.3611 2.9466 32.3871 2.80044 32.3871C2.59338 32.4131 2.41068 32.4391 2.22798 32.4521C2.05746 32.4651 1.93566 32.4781 1.87476 32.4781C1.52153 32.4781 1.35101 32.3351 1.35101 32.0621C1.35101 31.8411 1.43628 31.6851 1.61898 31.5681C1.7895 31.4641 2.14272 31.3211 2.66646 31.1651C3.77485 30.8531 4.51783 30.5801 4.88323 30.3461C5.24863 30.1121 5.43133 29.7611 5.43133 29.2931V4.46306H5.44351ZM8.78085 14.5251C9.13407 14.5511 9.45075 14.5771 9.74307 14.5901C10.0354 14.6031 10.2424 14.6161 10.3521 14.6161H12.0207C12.4592 14.6161 12.8246 14.6031 13.1169 14.5641C13.4093 14.5381 13.6529 14.4991 13.8599 14.4731C14.067 14.4471 14.274 14.3951 14.4689 14.3301C15.7844 13.9531 16.7831 13.2511 17.4774 12.2241C18.1595 11.1971 18.5127 9.91006 18.5127 8.38906C18.5127 6.60806 18.0011 5.25606 16.978 4.32006C15.9549 3.38406 14.4811 2.91606 12.5445 2.91606C10.0354 2.91606 8.76866 3.44906 8.76866 4.50206V14.5121L8.78085 14.5251ZM8.78085 28.4741C8.78085 29.2801 9.26805 29.9041 10.2303 30.3201C11.1925 30.7361 12.5932 30.9571 14.4446 30.9571C16.7222 30.9571 18.4153 30.4761 19.5115 29.5271C20.6077 28.5781 21.1558 27.1221 21.1558 25.1461C21.1558 23.8331 20.8878 22.6371 20.3397 21.5711C19.8038 20.4921 19.0486 19.5561 18.0864 18.7631C17.1242 17.9701 15.9793 17.3461 14.6394 16.9171C13.3118 16.4751 11.838 16.2671 10.2303 16.2671C10.0841 16.2671 9.88923 16.2671 9.63345 16.2931C9.38985 16.3061 9.09753 16.3321 8.78085 16.3581V28.4741Z" fill="#005F07"/>
<path id="Vector_2" d="M43.7741 28.0061C43.8594 28.0061 43.9203 28.0191 43.9446 28.0581C43.8228 28.2791 43.7132 28.5521 43.5914 28.8771C43.4696 29.2021 43.3722 29.5401 43.2869 29.8781C43.2017 30.2161 43.1164 30.5671 43.0433 30.9051C42.9702 31.2431 42.9337 31.5291 42.9337 31.7501C42.9093 31.9971 42.885 32.1921 42.8728 32.3091C42.8606 32.4391 42.8484 32.5171 42.8484 32.5431C42.7875 32.6081 42.6536 32.6341 42.4587 32.6341C42.2638 32.6341 42.0202 32.5561 41.7522 32.4001C41.4599 32.2441 40.9727 32.1661 40.3028 32.1661H32.1056C31.8742 32.1661 31.6184 32.1661 31.3627 32.1921C31.0947 32.2051 30.8389 32.2181 30.571 32.2441C30.303 32.2571 30.0716 32.2701 29.8645 32.2961C29.6574 32.3091 29.5113 32.3221 29.426 32.3221C29.3408 32.3481 29.2311 32.3741 29.1215 32.3741C28.9754 32.3741 28.9023 32.2051 28.9023 31.8541C28.9023 31.6981 28.9875 31.5811 29.1702 31.5031C29.3408 31.4251 29.694 31.3081 30.2177 31.1521C30.9729 30.9311 31.3627 30.6191 31.3627 30.2161V15.7991C31.3627 15.5521 31.2652 15.3441 31.0582 15.1881C30.8511 15.0321 30.4979 14.8891 30.0107 14.7721C29.2799 14.5901 28.9145 14.3691 28.9145 14.1221C28.9145 13.7841 28.9875 13.6021 29.1337 13.6021C29.2555 13.6021 29.3529 13.6151 29.4382 13.6541C29.6087 13.6801 30.0594 13.7061 30.778 13.7191C31.4966 13.7321 32.2153 13.7451 32.9461 13.7451L40.3515 13.6931C40.8753 13.6671 41.2529 13.6281 41.4965 13.6021C41.7279 13.5761 41.9228 13.5111 42.0689 13.4201C42.276 13.3291 42.4587 13.2771 42.6414 13.2771C42.8241 13.2771 42.9093 13.2901 42.9093 13.3291V13.4201L42.8606 14.0701L42.8119 14.7201V14.8111C42.8119 15.3701 42.8363 15.9161 42.8972 16.4231C42.9581 16.9431 43.0555 17.3851 43.2017 17.7621C43.1408 17.8531 42.9824 17.9051 42.7145 17.9051C42.5074 17.9051 42.3978 17.7751 42.3612 17.5281C42.1298 16.8131 41.8619 16.3061 41.5452 16.0071C41.2407 15.7081 40.8387 15.5651 40.3393 15.5651H37.404C36.3808 15.5651 35.6622 15.6951 35.2603 15.9681C34.8461 16.2281 34.6513 16.7221 34.6513 17.4371V21.2721C34.6513 21.5581 34.7852 21.6881 35.041 21.6881H39.5598C39.9374 21.6881 40.2175 21.6231 40.3881 21.4801C40.5586 21.3371 40.8022 21.0381 41.0945 20.5701C41.1554 20.4141 41.2529 20.3361 41.399 20.3361H41.667V20.3881H41.8375C41.7157 20.8561 41.6304 21.2721 41.5695 21.6491C41.5086 22.0261 41.4599 22.3771 41.4112 22.7021C41.3625 23.0271 41.3381 23.3521 41.3259 23.6901C41.3138 24.0151 41.3016 24.3791 41.3016 24.7951V24.9381C41.3016 24.9381 41.1798 24.9901 41.1311 24.9901H40.9605C40.7535 24.9901 40.6439 24.9121 40.6073 24.7561C40.4368 23.9501 40.0105 23.5341 39.3406 23.5341H35.041C34.7731 23.5341 34.6513 23.6641 34.6513 23.9111V28.4481C34.6513 29.1631 34.8461 29.6701 35.2237 29.9431C35.6013 30.2291 36.2956 30.3591 37.2822 30.3591H40.3028C40.8631 30.3591 41.3381 30.2161 41.7522 29.9171C42.1664 29.6181 42.5805 29.1111 43.019 28.3961C43.1651 28.1491 43.3235 28.0191 43.5062 28.0191H43.7741V28.0061Z" fill="#005F07"/>
<path id="Vector_3" d="M64.6385 15.7471C64.6385 15.5001 64.5411 15.3051 64.334 15.1621C64.127 15.0191 63.7737 14.8761 63.2865 14.7201C62.8237 14.5901 62.5192 14.4991 62.3852 14.4341C62.2512 14.3691 62.1903 14.2651 62.1903 14.1091C62.1903 14.0441 62.1903 13.9791 62.2147 13.9271C62.2269 13.8621 62.2512 13.7581 62.2756 13.6021C62.7384 13.6671 63.2622 13.7061 63.8346 13.7451C64.4071 13.7711 64.9674 13.7971 65.5277 13.7971C65.9661 13.7971 66.4655 13.7971 67.0136 13.7711C67.5739 13.7581 67.9637 13.7321 68.1951 13.7061C68.2803 13.6801 68.3656 13.6541 68.4387 13.6541H68.6336C68.7797 13.6541 68.8528 13.8231 68.8528 14.1741C68.8528 14.3041 68.7919 14.3951 68.6579 14.4601C68.5239 14.5251 68.2073 14.6161 67.7201 14.7461C67.2207 14.8761 66.8796 15.0061 66.6848 15.1621C66.4899 15.3181 66.4046 15.5261 66.4046 15.7731V32.2051C65.9905 32.2051 65.5886 32.2181 65.1988 32.2571C64.809 32.2831 64.5289 32.3351 64.3827 32.4001L50.5706 17.4241L50.7045 30.2421C50.7045 30.4891 50.7898 30.6971 50.9725 30.8531C51.143 31.0091 51.4719 31.1521 51.9347 31.2691C52.4341 31.3991 52.763 31.4901 52.9213 31.5681C53.0796 31.6461 53.1649 31.7501 53.1649 31.8671C53.1649 32.2051 53.0796 32.3871 52.8969 32.3871H52.7386C52.6655 32.3871 52.5803 32.3741 52.495 32.3351C52.2879 32.3091 51.886 32.2701 51.2648 32.2441C50.6558 32.2181 50.1077 32.1921 49.6449 32.1921L47.3185 32.2831C47.1967 32.3091 47.1114 32.3351 47.0383 32.3481C46.9653 32.3611 46.9044 32.3741 46.8435 32.3741C46.612 32.3741 46.4902 32.2051 46.4902 31.8541C46.4902 31.6981 46.5755 31.5941 46.7338 31.5291C46.8922 31.4641 47.221 31.3731 47.7204 31.2431C48.5365 31.0221 48.9506 30.6841 48.9506 30.2161V17.2941C48.9506 16.6441 48.8897 16.1631 48.7557 15.8641C48.6217 15.5651 48.3416 15.2921 47.9031 15.0451C47.5255 14.8241 47.0992 14.6551 46.6364 14.5251C46.5146 14.4991 46.4659 14.4341 46.4659 14.3431V14.2911C46.4659 13.7971 46.5146 13.5371 46.5999 13.5371H46.6851C46.9165 13.6021 47.2941 13.6411 47.8057 13.6801C48.3172 13.7061 48.7801 13.7321 49.182 13.7321C49.6814 13.7321 50.1442 13.7191 50.5584 13.6801C50.9847 13.6541 51.3135 13.6021 51.545 13.5371L64.7847 27.8631L64.6507 15.7471H64.6385Z" fill="#005F07"/>
<path id="Vector_4" d="M87.1351 28.0061C87.2204 28.0061 87.2813 28.0191 87.3056 28.0581C87.1838 28.2791 87.0742 28.5521 86.9524 28.8771C86.8306 29.2021 86.7332 29.5401 86.6479 29.8781C86.5626 30.2161 86.4774 30.5671 86.4043 30.9051C86.3312 31.2431 86.2947 31.5291 86.2947 31.7501C86.2703 31.9971 86.2459 32.1921 86.2338 32.3091C86.2216 32.4391 86.2094 32.5171 86.2094 32.5431C86.1485 32.6081 86.0145 32.6341 85.8196 32.6341C85.6248 32.6341 85.3812 32.5561 85.1132 32.4001C84.8209 32.2441 84.3337 32.1661 83.6638 32.1661H75.4666C75.2352 32.1661 74.9794 32.1661 74.7236 32.1921C74.4557 32.2051 74.1999 32.2181 73.9319 32.2441C73.664 32.2571 73.4325 32.2701 73.2255 32.2961C73.0184 32.3091 72.8722 32.3221 72.787 32.3221C72.7017 32.3481 72.5921 32.3741 72.4825 32.3741C72.3363 32.3741 72.2632 32.2051 72.2632 31.8541C72.2632 31.6981 72.3485 31.5811 72.5312 31.5031C72.7017 31.4251 73.055 31.3081 73.5787 31.1521C74.3339 30.9311 74.7236 30.6191 74.7236 30.2161V15.7991C74.7236 15.5521 74.6262 15.3441 74.4191 15.1881C74.2121 15.0321 73.8588 14.8891 73.3716 14.7721C72.6408 14.5901 72.2754 14.3691 72.2754 14.1221C72.2754 13.7841 72.3485 13.6021 72.4947 13.6021C72.6165 13.6021 72.7139 13.6151 72.7992 13.6541C72.9697 13.6801 73.4204 13.7061 74.139 13.7191C74.8576 13.7321 75.5762 13.7451 76.307 13.7451L83.7125 13.6931C84.2362 13.6671 84.6138 13.6281 84.8574 13.6021C85.0888 13.5761 85.2837 13.5111 85.4299 13.4201C85.6369 13.3291 85.8196 13.2771 86.0023 13.2771C86.1851 13.2771 86.2703 13.2901 86.2703 13.3291V13.4201L86.2216 14.0701L86.1729 14.7201V14.8111C86.1729 15.3701 86.1972 15.9161 86.2581 16.4231C86.319 16.9431 86.4165 17.3851 86.5626 17.7621C86.5017 17.8531 86.3434 17.9051 86.0754 17.9051C85.8684 17.9051 85.7587 17.7751 85.7222 17.5281C85.4908 16.8131 85.2228 16.3061 84.9061 16.0071C84.6016 15.7081 84.1997 15.5651 83.7003 15.5651H80.7649C79.7418 15.5651 79.0232 15.6951 78.6212 15.9681C78.2071 16.2281 78.0122 16.7221 78.0122 17.4371V21.2721C78.0122 21.5581 78.1462 21.6881 78.402 21.6881H82.9208C83.2984 21.6881 83.5785 21.6231 83.749 21.4801C83.9196 21.3371 84.1632 21.0381 84.4555 20.5701C84.5164 20.4141 84.6138 20.3361 84.76 20.3361H85.0279V20.3881H85.1985C85.0767 20.8561 84.9914 21.2721 84.9305 21.6491C84.8696 22.0261 84.8209 22.3771 84.7722 22.7021C84.7234 23.0271 84.6991 23.3521 84.6869 23.6901C84.6747 24.0151 84.6625 24.3791 84.6625 24.7951V24.9381C84.6625 24.9381 84.5407 24.9901 84.492 24.9901H84.3215C84.1144 24.9901 84.0048 24.9121 83.9683 24.7561C83.7978 23.9501 83.3715 23.5341 82.7016 23.5341H78.402C78.134 23.5341 78.0122 23.6641 78.0122 23.9111V28.4481C78.0122 29.1631 78.2071 29.6701 78.5847 29.9431C78.9623 30.2291 79.6565 30.3591 80.6431 30.3591H83.6638C84.2241 30.3591 84.6991 30.2161 85.1132 29.9171C85.5273 29.6181 85.9414 29.1111 86.3799 28.3961C86.5261 28.1491 86.6844 28.0191 86.8671 28.0191H87.1351V28.0061Z" fill="#005F07"/>
<path id="Vector_5" d="M105.332 28.0581C105.417 28.0581 105.478 28.0711 105.503 28.1101C105.417 28.2921 105.308 28.5521 105.198 28.8771C105.076 29.2021 104.967 29.5531 104.869 29.9041C104.772 30.2681 104.674 30.6061 104.601 30.9311C104.528 31.2561 104.492 31.5291 104.492 31.7501C104.431 32.1921 104.394 32.4391 104.358 32.5171C104.333 32.5951 104.212 32.6341 104.004 32.6341C103.736 32.6341 103.505 32.5561 103.298 32.4001C103.006 32.2441 102.518 32.1661 101.849 32.1661H93.0302C92.5918 32.1661 92.0924 32.1791 91.5199 32.2181C90.9474 32.2441 90.5455 32.2831 90.3141 32.3091C90.2288 32.3351 90.1192 32.3611 90.0096 32.3611C89.8634 32.3611 89.7903 32.1921 89.7903 31.8411C89.7903 31.6851 89.8634 31.5681 90.0096 31.4901C90.1557 31.4121 90.509 31.3081 91.0571 31.1911C91.8731 30.9701 92.2872 30.6321 92.2872 30.1641V15.747C92.2872 15.435 92.1898 15.214 92.0071 15.097C91.8122 14.967 91.3372 14.811 90.582 14.629C90.2654 14.538 90.0461 14.46 89.9487 14.395C89.8512 14.33 89.7903 14.226 89.7903 14.07C89.7903 13.732 89.8634 13.55 90.0096 13.55H90.1801C90.3872 13.615 90.7891 13.654 91.4103 13.693C92.0193 13.719 92.5309 13.745 92.945 13.745H94.7842C95.247 13.745 95.7951 13.732 96.4285 13.693C97.0618 13.667 97.476 13.615 97.683 13.55H97.8535C97.9997 13.55 98.0728 13.719 98.0728 14.07C98.0728 14.226 98.0119 14.33 97.9023 14.395C97.7805 14.46 97.4394 14.564 96.8548 14.72C96.0022 14.967 95.5881 15.318 95.5881 15.747V28.4741C95.5881 29.1891 95.7829 29.6961 96.1605 29.969C96.5381 30.2551 97.2323 30.3851 98.2189 30.3851H101.861C102.421 30.3851 102.896 30.2421 103.31 29.9431C103.724 29.6441 104.138 29.1371 104.577 28.4221C104.723 28.1751 104.881 28.0451 105.064 28.0451H105.332V28.0581Z" fill="#005F07"/>
<path id="Vector_6" d="M125.855 23.0921C125.855 29.4621 123.383 32.6341 118.45 32.6341C112.981 32.6341 110.253 29.6831 110.253 23.7941V15.7471C110.253 15.4351 110.155 15.2141 109.973 15.0971C109.778 14.9671 109.303 14.8111 108.548 14.6291C108.231 14.5381 108.012 14.4601 107.914 14.3951C107.817 14.3301 107.756 14.2261 107.756 14.0701C107.756 13.7321 107.829 13.5501 107.975 13.5501H108.146C108.353 13.6151 108.755 13.6541 109.376 13.6931C109.985 13.7191 110.496 13.7451 110.911 13.7451H112.75C113.213 13.7451 113.761 13.7321 114.394 13.6931C115.027 13.6671 115.442 13.6151 115.649 13.5501H115.819C115.965 13.5501 116.038 13.7191 116.038 14.0701C116.038 14.2261 115.977 14.3301 115.868 14.3951C115.746 14.4601 115.405 14.5641 114.82 14.7201C113.968 14.9671 113.554 15.3181 113.554 15.7471V23.6121C113.554 26.1341 113.98 28.0061 114.845 29.2281C115.71 30.4501 117.061 31.0481 118.901 31.0481C120.74 31.0481 122.067 30.3851 122.896 29.0591C123.712 27.7331 124.126 25.5881 124.126 22.6241V15.6951C124.126 15.4481 124.028 15.2401 123.821 15.0841C123.614 14.9281 123.261 14.7851 122.774 14.6681C122.335 14.5381 122.043 14.4471 121.897 14.3691C121.751 14.2911 121.678 14.1871 121.678 14.0701C121.678 13.7321 121.763 13.5501 121.946 13.5501L122.518 13.6021C122.689 13.6671 123.054 13.7061 123.614 13.7191C124.175 13.7321 124.637 13.7451 125.015 13.7451C125.222 13.7451 125.454 13.7451 125.721 13.7191C125.989 13.7061 126.245 13.6931 126.513 13.6671C126.781 13.6541 127.013 13.6411 127.232 13.6151C127.451 13.6021 127.609 13.5891 127.695 13.5891C127.78 13.5631 127.865 13.5371 127.938 13.5371H128.097C128.267 13.5371 128.365 13.7061 128.365 14.0571C128.365 14.2131 128.291 14.3171 128.145 14.3561C127.999 14.4081 127.658 14.4991 127.134 14.6551C126.318 14.8761 125.904 15.2141 125.904 15.6821V23.0791L125.855 23.0921Z" fill="#005F07"/>
<path id="Vector_7" d="M133.395 32.1791C133.188 32.1791 132.944 32.1791 132.676 32.2051C132.396 32.2181 132.128 32.2311 131.86 32.2571C131.592 32.2701 131.361 32.2831 131.154 32.3091C130.947 32.3221 130.801 32.3351 130.715 32.3351C130.63 32.3611 130.545 32.3871 130.472 32.3871H130.277C130.131 32.3871 130.058 32.2181 130.058 31.8671C130.058 31.6201 130.35 31.4121 130.935 31.2561C131.288 31.1911 131.592 31.1001 131.86 30.9701C132.128 30.8401 132.408 30.6451 132.713 30.3851C133.017 30.1251 133.371 29.7481 133.76 29.2671C134.15 28.7861 134.649 28.1491 135.234 27.3691C135.405 27.1221 135.624 26.8361 135.892 26.4981C136.16 26.1731 136.452 25.7831 136.769 25.3541C137 25.0681 137.244 24.7691 137.487 24.4441C137.731 24.1191 137.95 23.8331 138.121 23.5731C137.561 22.8191 137.085 22.1561 136.671 21.5841C136.257 21.0121 135.928 20.5311 135.66 20.1541C134.723 18.8411 134.053 17.9051 133.639 17.3461C133.224 16.7871 132.969 16.4361 132.847 16.3191C132.53 15.9421 132.177 15.6431 131.799 15.4091C131.422 15.1751 130.935 14.9281 130.35 14.6811C129.972 14.5251 129.777 14.3561 129.777 14.1611C129.717 13.7841 129.79 13.6021 129.997 13.6021H130.045C130.338 13.6671 130.776 13.7061 131.361 13.7191C131.945 13.7321 132.457 13.7451 132.896 13.7451H135.039C135.307 13.7451 135.587 13.7451 135.892 13.7191C136.196 13.7061 136.489 13.6931 136.769 13.6671C137.049 13.6541 137.293 13.6411 137.512 13.6151C137.731 13.6021 137.865 13.5891 137.926 13.5891C138.048 13.5631 138.157 13.5371 138.279 13.5371C138.425 13.5371 138.498 13.7061 138.498 14.0571C138.498 14.2131 138.437 14.3171 138.328 14.3821C138.206 14.4471 137.877 14.5641 137.317 14.7591C136.525 15.0061 136.135 15.3571 136.135 15.7861C136.135 15.9421 136.269 16.2411 136.55 16.6701C136.83 17.1121 137.293 17.7621 137.926 18.6331L138.011 18.7761L138.364 19.2441C138.657 19.6471 138.9 19.9981 139.107 20.2971C139.314 20.5961 139.534 20.9081 139.765 21.2591C140.204 20.6611 140.654 20.0501 141.105 19.4131C141.556 18.7761 141.958 18.1781 142.311 17.6061C142.664 17.0471 142.956 16.5661 143.188 16.1761C143.419 15.7861 143.541 15.5391 143.541 15.4481C143.541 15.2271 143.456 15.0711 143.273 14.9541C143.102 14.8501 142.786 14.7331 142.347 14.6031C141.677 14.4471 141.336 14.2651 141.336 14.0441C141.361 13.7971 141.385 13.6411 141.397 13.6021C141.409 13.5501 141.458 13.5371 141.556 13.5371H141.75C141.824 13.5371 141.909 13.5501 141.994 13.5891C142.079 13.5891 142.25 13.5891 142.493 13.6151C142.737 13.6281 143.017 13.6411 143.322 13.6671C143.626 13.6931 143.943 13.6931 144.26 13.7191C144.576 13.7321 144.856 13.7451 145.088 13.7451C145.295 13.7451 145.538 13.7451 145.806 13.7191C146.087 13.7061 146.354 13.6931 146.622 13.6671C146.89 13.6541 147.122 13.6411 147.341 13.6151C147.56 13.6021 147.719 13.5891 147.804 13.5891C147.889 13.5631 147.974 13.5371 148.048 13.5371H148.242C148.389 13.5371 148.462 13.7061 148.462 14.0571C148.462 14.3041 148.145 14.5121 147.499 14.6681C147.146 14.7591 146.854 14.8501 146.622 14.9541C146.391 15.0451 146.135 15.2141 145.879 15.4481C145.612 15.6821 145.319 16.0331 144.978 16.5011C144.637 16.9691 144.199 17.5931 143.638 18.3731C143.577 18.4381 143.443 18.5941 143.249 18.8671C143.042 19.1271 142.725 19.5821 142.286 20.2061L140.581 22.4551C141.69 24.0801 142.652 25.4581 143.456 26.6021C144.26 27.7461 144.905 28.6561 145.404 29.3451C145.721 29.8391 146.05 30.2291 146.367 30.4891C146.683 30.7491 147.097 30.9831 147.597 31.1651L147.731 31.2171L148.035 31.3081C148.303 31.3991 148.474 31.4771 148.559 31.5421C148.644 31.6071 148.693 31.7111 148.693 31.8671C148.693 32.2051 148.62 32.3871 148.474 32.3871C148.328 32.3871 148.206 32.3741 148.121 32.3351C147.974 32.3091 147.621 32.2701 147.049 32.2441C146.476 32.2181 145.977 32.1921 145.538 32.1921H143.395C143.163 32.1921 142.895 32.1921 142.579 32.2181C142.274 32.2311 141.982 32.2441 141.702 32.2701C141.422 32.2831 141.178 32.2961 140.959 32.3221C140.739 32.3351 140.581 32.3481 140.496 32.3481C140.411 32.3741 140.301 32.4001 140.191 32.4001C140.045 32.4001 139.972 32.2311 139.972 31.8801C139.972 31.7241 140.033 31.6201 140.167 31.5551C140.301 31.4901 140.63 31.3731 141.154 31.1781C141.945 30.9571 142.335 30.6321 142.335 30.1901C142.335 30.0081 142.201 29.7221 141.945 29.3451L141.641 28.8251C141.519 28.6431 141.385 28.4221 141.227 28.1751C141.068 27.9281 140.873 27.6291 140.63 27.2911C140.423 27.0051 140.24 26.7451 140.057 26.4981C139.887 26.2511 139.777 26.0951 139.753 26.0301C139.692 25.9391 139.631 25.8481 139.558 25.7441C139.485 25.6531 139.424 25.5361 139.363 25.4191C139.217 25.2371 139.12 25.0941 139.059 25.0161C138.998 24.9381 138.937 24.8471 138.888 24.7561L137.439 26.7191L136.513 27.9801C136.196 28.3181 135.928 28.6951 135.721 29.0981C135.222 29.6571 134.978 30.1121 134.978 30.4501C134.978 30.8271 135.368 31.1001 136.16 31.2951C136.83 31.4511 137.171 31.6331 137.171 31.8541C137.171 32.1921 137.085 32.3741 136.903 32.3741C136.842 32.3741 136.757 32.3741 136.635 32.3481C136.513 32.3351 136.391 32.3091 136.245 32.2831C136.099 32.2571 135.819 32.2311 135.392 32.2181C134.966 32.2051 134.576 32.1921 134.235 32.1921H133.358L133.395 32.1791Z" fill="#005F07"/>
<path id="Vector_8" d="M169.606 33.531C169.606 34.688 169.582 35.689 169.521 36.547C169.46 37.405 169.363 38.159 169.216 38.822C169.07 39.472 168.875 40.044 168.644 40.525C168.413 41.006 168.12 41.474 167.767 41.903C167.414 42.332 166.975 42.748 166.452 43.125C165.928 43.502 165.331 43.814 164.673 44.087C164.016 44.347 163.321 44.568 162.59 44.724C161.86 44.88 161.141 44.958 160.447 44.958C159.753 44.958 159.046 44.841 158.425 44.607C157.816 44.373 157.499 44.113 157.499 43.84C157.499 43.684 157.548 43.45 157.658 43.138C157.755 42.826 157.889 42.501 158.035 42.176C158.181 41.851 158.327 41.565 158.474 41.331C158.62 41.097 158.742 40.98 158.827 40.98C158.912 40.98 159.058 41.058 159.265 41.214C159.679 41.591 160.167 41.89 160.739 42.124C161.312 42.358 161.847 42.475 162.335 42.475C163.187 42.475 163.918 42.202 164.527 41.656C165.136 41.11 165.599 40.356 165.891 39.381C166.037 38.939 166.135 38.302 166.196 37.457C166.257 36.612 166.281 35.65 166.281 34.558L166.232 4.60602C166.257 4.16402 166.086 3.82602 165.709 3.57902C165.331 3.33202 164.588 3.04602 163.467 2.73402C162.944 2.57802 162.59 2.44802 162.42 2.33102C162.249 2.22702 162.152 2.05802 162.152 1.83702C162.152 1.55102 162.286 1.42102 162.542 1.42102H162.7C162.773 1.42102 162.834 1.43402 162.895 1.47302C163.017 1.49902 163.285 1.53802 163.711 1.56402C164.137 1.59002 164.612 1.61602 165.16 1.62902C165.696 1.64202 166.232 1.65502 166.756 1.68102C167.28 1.69402 167.706 1.70702 168.023 1.70702C168.607 1.70702 169.35 1.68102 170.264 1.64202C171.165 1.59002 172.042 1.53802 172.895 1.47302H173.248C173.54 1.47302 173.687 1.62902 173.687 1.94102C173.687 2.12302 173.589 2.27902 173.406 2.38302C173.211 2.48702 172.87 2.60402 172.371 2.73402C171.263 3.04602 170.52 3.31902 170.154 3.55302C169.789 3.78702 169.606 4.13802 169.606 4.60602V33.531Z" fill="#005F07"/>
<path id="Vector_9" d="M187.024 13.264C188.278 13.264 189.46 13.498 190.556 13.966C191.652 14.434 192.614 15.084 193.455 15.903C194.295 16.722 194.941 17.684 195.428 18.776C195.915 19.868 196.147 21.025 196.147 22.234C196.147 23.612 195.854 24.912 195.27 26.16C194.685 27.408 193.905 28.513 192.943 29.488C191.981 30.45 190.86 31.217 189.594 31.776C188.327 32.335 186.999 32.621 185.623 32.621C184.247 32.621 183.102 32.413 182.006 31.984C180.909 31.555 179.971 30.983 179.18 30.229C178.388 29.475 177.779 28.578 177.341 27.538C176.902 26.498 176.683 25.328 176.683 24.054C176.683 22.624 176.963 21.246 177.511 19.933C178.071 18.62 178.814 17.476 179.764 16.488C180.714 15.5 181.823 14.72 183.077 14.122C184.332 13.524 185.647 13.238 187.024 13.238V13.264ZM186.366 15.227C185.513 15.227 184.709 15.435 183.954 15.838C183.199 16.241 182.541 16.8 181.981 17.502C181.421 18.204 180.982 19.036 180.666 19.985C180.349 20.934 180.178 21.948 180.178 23.001C180.178 24.119 180.325 25.159 180.617 26.108C180.909 27.057 181.323 27.876 181.872 28.539C182.407 29.215 183.065 29.735 183.82 30.112C184.575 30.489 185.416 30.671 186.317 30.671C188.217 30.671 189.74 29.995 190.897 28.656C192.054 27.317 192.627 25.536 192.627 23.326C192.627 22.169 192.468 21.103 192.139 20.115C191.823 19.127 191.384 18.282 190.824 17.567C190.264 16.852 189.606 16.28 188.826 15.864C188.047 15.448 187.231 15.227 186.354 15.227H186.366Z" fill="#005F07"/>
<path id="Vector_10" d="M201.615 13.641C201.847 13.615 202.176 13.589 202.578 13.576C202.992 13.563 203.479 13.524 204.064 13.459C204.648 13.394 205.257 13.355 205.903 13.316C206.548 13.29 207.084 13.264 207.523 13.264C209.861 13.264 211.554 13.563 212.614 14.174C213.661 14.785 214.197 15.76 214.197 17.099C214.197 18.633 213.406 19.881 211.834 20.843C211.542 21.025 211.25 21.181 210.958 21.285C210.665 21.389 210.178 21.571 209.508 21.818C211.493 22.13 213.077 22.806 214.246 23.833C215.415 24.86 216 26.108 216 27.577C216 29.163 215.379 30.411 214.137 31.295C212.894 32.179 211.152 32.634 208.899 32.634C208.4 32.634 207.925 32.608 207.474 32.569C207.023 32.517 206.548 32.465 206.049 32.4C205.55 32.335 205.087 32.283 204.673 32.231C204.246 32.179 203.783 32.166 203.296 32.166H202.468C202.261 32.166 202.03 32.166 201.762 32.192C201.494 32.205 201.238 32.218 200.994 32.244C200.751 32.257 200.519 32.27 200.312 32.296C200.105 32.309 199.959 32.322 199.874 32.322C199.788 32.348 199.703 32.374 199.606 32.374C199.46 32.374 199.386 32.192 199.386 31.815C199.386 31.659 199.472 31.542 199.63 31.464C199.788 31.386 200.129 31.282 200.665 31.165C201.481 30.944 201.896 30.606 201.896 30.138V15.721C201.896 15.253 201.481 14.967 200.665 14.876C200.105 14.811 199.764 14.759 199.618 14.707C199.472 14.655 199.399 14.564 199.399 14.408C199.399 14.161 199.484 13.992 199.642 13.888C199.801 13.797 200.093 13.745 200.495 13.745L201.372 13.654H201.64L201.615 13.641ZM205.172 21.311C205.343 21.337 205.574 21.363 205.854 21.376C206.134 21.389 206.427 21.402 206.755 21.402C207.401 21.402 207.9 21.363 208.266 21.285C208.631 21.207 208.972 21.064 209.301 20.843C210.178 20.193 210.616 19.192 210.616 17.853C210.616 16.111 209.532 15.227 207.377 15.227C205.915 15.227 205.184 15.539 205.184 16.163V21.311H205.172ZM205.172 29.176C205.172 30.177 206.341 30.671 208.68 30.671C211.286 30.671 212.577 29.683 212.577 27.72C212.577 26.16 211.981 24.938 210.799 24.041C209.618 23.157 208.01 22.702 206 22.702C205.623 22.702 205.355 22.728 205.209 22.793H205.16V29.163L205.172 29.176Z" fill="#005F07"/>
<path id="Vector_11" d="M16.0767 60.2591C15.76 60.2591 15.419 60.3111 15.0657 60.4021L3.33635 47.1161V58.8161C3.33635 59.0501 3.42161 59.2321 3.61649 59.3491C3.79919 59.4661 4.16459 59.6091 4.72487 59.7521C4.99283 59.8301 5.16335 59.8951 5.24861 59.9341C5.33387 59.9861 5.38259 60.0641 5.38259 60.1681C5.38259 60.2331 5.38259 60.2721 5.35823 60.3111L5.33387 60.3371C5.33387 60.3371 5.29733 60.4021 5.27297 60.4021C5.24861 60.4021 5.21207 60.4021 5.18771 60.3761L4.72487 60.3501L4.12805 60.2981C3.95753 60.2851 3.76265 60.2721 3.5434 60.2591C3.33634 60.2591 3.1171 60.2591 2.89786 60.2591C2.77606 60.2591 2.64208 60.2591 2.47156 60.2591C2.30104 60.2591 2.13052 60.2721 1.97218 60.2851C1.80166 60.2851 1.64332 60.2981 1.48498 60.3111C1.32664 60.3111 1.20484 60.3371 1.11958 60.3501C1.02214 60.3631 0.924695 60.3761 0.851614 60.3891C0.778534 60.3891 0.717634 60.3891 0.656734 60.3891C0.522753 60.3891 0.461853 60.3241 0.461853 60.1811C0.461853 60.0771 0.510574 59.9861 0.595834 59.9341C0.681095 59.8821 0.863796 59.8171 1.11958 59.7391C1.69204 59.5831 2.05744 59.4401 2.24014 59.3361C2.41066 59.2191 2.5081 59.0371 2.5081 58.8031V48.0391C2.5081 47.6491 2.48374 47.3241 2.45938 47.0641C2.42284 46.8041 2.36194 46.5831 2.2645 46.4011C2.16706 46.2191 2.03308 46.0501 1.85038 45.8941C1.66768 45.7511 1.42408 45.5821 1.13175 45.4131C1.03431 45.3481 0.973417 45.2961 0.949057 45.2571C0.924697 45.2181 0.912514 45.1531 0.912514 45.0621C0.912514 44.9321 0.961235 44.8801 1.07086 44.8801C1.09522 44.8801 1.13176 44.8801 1.18048 44.8801C1.2292 44.8801 1.27792 44.9061 1.351 44.9191C1.39972 44.9191 1.4728 44.9191 1.57024 44.9451C1.66768 44.9581 1.78948 44.9711 1.91128 44.9841C2.03308 44.9841 2.15488 44.9971 2.2645 45.0101C2.37412 45.0101 2.47156 45.0101 2.54464 45.0101C2.83696 45.0101 3.28763 44.9581 3.90881 44.8671L15.2606 57.7371V46.4531C15.2606 46.2191 15.1632 46.0501 14.9805 45.9331C14.7978 45.8161 14.4324 45.6731 13.8721 45.5301C13.6041 45.4521 13.4336 45.3871 13.3483 45.3351C13.2631 45.2831 13.2144 45.2051 13.2144 45.0881C13.2144 44.9451 13.2996 44.8801 13.458 44.8801C13.4823 44.8801 13.5432 44.8801 13.6285 44.8801C13.7137 44.8801 13.7868 44.9061 13.8843 44.9191C13.9695 44.9321 14.0913 44.9451 14.2619 44.9581C14.4202 44.9581 14.5907 44.9711 14.7612 44.9841C14.9318 44.9841 15.1023 44.9971 15.2606 45.0101C15.4311 45.0101 15.5651 45.0101 15.6869 45.0101C15.8087 45.0101 15.9427 45.0101 16.1132 45.0101C16.2837 45.0101 16.4543 44.9971 16.6126 44.9841C16.7831 44.9841 16.9415 44.9711 17.0998 44.9581C17.2581 44.9581 17.3799 44.9451 17.4774 44.9191C17.5748 44.9061 17.6723 44.8931 17.7575 44.8801C17.8428 44.8671 17.9037 44.8801 17.9402 44.8801C18.0742 44.8801 18.1351 44.9451 18.1351 45.0881C18.1351 45.1921 18.0986 45.2831 18.0133 45.3351C17.9281 45.3871 17.7575 45.4521 17.4774 45.5301C16.9049 45.6861 16.5395 45.8161 16.3568 45.9331C16.1863 46.0501 16.0889 46.2191 16.0889 46.4531V60.2331L16.0767 60.2591Z" fill="#005F07"/>
<path id="Vector_12" d="M26.4054 58.166C26.4054 58.166 26.4784 58.166 26.4906 58.192C26.4297 58.296 26.3688 58.439 26.3201 58.595C26.2714 58.751 26.2105 58.933 26.1618 59.102C26.113 59.271 26.0765 59.44 26.04 59.622C26.0034 59.804 25.9912 59.934 25.9912 60.038C25.9791 60.168 25.9669 60.259 25.9547 60.324C25.9547 60.389 25.9547 60.428 25.9547 60.441C25.9303 60.467 25.8573 60.493 25.7598 60.493C25.6624 60.493 25.5406 60.454 25.4066 60.376C25.2604 60.298 25.0168 60.259 24.688 60.259H20.5833C20.4615 60.259 20.3397 60.259 20.2057 60.259C20.0717 60.259 19.9378 60.272 19.816 60.285C19.682 60.285 19.5723 60.298 19.4627 60.311C19.3653 60.311 19.2922 60.311 19.2435 60.311C19.1948 60.324 19.1461 60.337 19.0852 60.337C19.0121 60.337 18.9755 60.246 18.9755 60.077C18.9755 59.999 19.0242 59.947 19.1095 59.895C19.1948 59.856 19.3775 59.804 19.6332 59.726C20.0108 59.622 20.2057 59.466 20.2057 59.258V52.056C20.2057 51.926 20.157 51.835 20.0474 51.757C19.9499 51.679 19.7672 51.614 19.5236 51.549C19.1582 51.458 18.9755 51.341 18.9755 51.224C18.9755 51.055 19.0121 50.964 19.0852 50.964C19.1461 50.964 19.1948 50.964 19.2435 50.99C19.3287 51.003 19.548 51.016 19.9134 51.029C20.2666 51.029 20.632 51.029 20.9974 51.029L24.7002 51.003C24.9681 50.99 25.1508 50.977 25.2726 50.951C25.3944 50.938 25.4797 50.899 25.5528 50.86C25.6502 50.808 25.7476 50.795 25.8329 50.795C25.9182 50.795 25.9669 50.795 25.9669 50.821V50.873L25.9425 51.198L25.9182 51.523V51.575C25.9182 51.861 25.9303 52.121 25.9669 52.381C25.9912 52.641 26.0521 52.862 26.1252 53.044C26.1009 53.096 26.0156 53.109 25.8816 53.109C25.7842 53.109 25.7233 53.044 25.7111 52.927C25.5893 52.563 25.4553 52.316 25.3092 52.16C25.1508 52.017 24.9559 51.939 24.7002 51.939H23.2264C22.7148 51.939 22.3616 52.004 22.1545 52.134C21.9475 52.264 21.85 52.511 21.85 52.875V54.799C21.85 54.942 21.9109 55.007 22.0449 55.007H24.2982C24.4931 55.007 24.6271 54.968 24.7123 54.903C24.7976 54.838 24.9194 54.682 25.0656 54.448C25.0899 54.37 25.1508 54.331 25.2239 54.331H25.3579V54.357H25.4431C25.3822 54.591 25.3457 54.799 25.3092 54.994C25.2726 55.189 25.2604 55.358 25.2361 55.514C25.2117 55.67 25.1995 55.839 25.1874 56.008C25.1874 56.177 25.1874 56.359 25.1874 56.554V56.619C25.1874 56.619 25.1265 56.645 25.1021 56.645H25.0168C24.9194 56.645 24.8585 56.606 24.8463 56.528C24.7611 56.125 24.5418 55.917 24.213 55.917H22.0693C21.9353 55.917 21.8744 55.982 21.8744 56.099V58.374C21.8744 58.738 21.9718 58.985 22.1545 59.128C22.3494 59.271 22.6904 59.336 23.1898 59.336H24.7002C24.9803 59.336 25.2239 59.258 25.4188 59.115C25.6258 58.972 25.8329 58.712 26.0521 58.361C26.1252 58.231 26.2105 58.179 26.2957 58.179H26.4297L26.4054 58.166Z" fill="#005F07"/>
<path id="Vector_13" d="M37.1847 60.35C37.0629 60.025 36.9411 59.622 36.795 59.141C36.6488 58.66 36.4783 58.114 36.2712 57.49C36.052 56.814 35.8693 56.281 35.7353 55.865C35.6013 55.449 35.4673 55.046 35.3577 54.656C35.1141 55.449 34.9071 56.0991 34.7609 56.5931C34.6147 57.087 34.4929 57.529 34.3833 57.906C34.2859 58.283 34.1884 58.6341 34.1154 58.9851C34.0423 59.3231 33.957 59.752 33.8474 60.246L31.7402 60.3371C31.5454 59.7911 31.387 59.323 31.2409 58.933C31.0947 58.543 30.9364 58.1401 30.778 57.7371C30.6197 57.3341 30.4248 56.879 30.1934 56.372C29.962 55.865 29.6818 55.228 29.3286 54.448C29.085 53.915 28.8901 53.499 28.7561 53.213C28.6222 52.914 28.5247 52.693 28.4516 52.55C28.3786 52.407 28.3298 52.303 28.2933 52.251C28.2567 52.199 28.2202 52.134 28.1715 52.082C28.0497 51.952 27.9279 51.861 27.7939 51.783C27.6599 51.705 27.465 51.614 27.2093 51.523C27.0631 51.458 26.9657 51.419 26.9291 51.38C26.8926 51.341 26.8682 51.2891 26.8682 51.2111C26.8682 51.0421 26.9048 50.951 26.9779 50.951H27.0631C27.1849 50.977 27.392 51.003 27.6965 51.016C28.001 51.029 28.2811 51.042 28.5247 51.042H29.426C29.7184 51.042 29.9863 51.042 30.2299 51.042C30.4735 51.042 30.7537 51.016 31.0947 50.99H31.1434C31.2409 50.99 31.3018 51.068 31.3018 51.224C31.3018 51.302 31.2774 51.354 31.2409 51.38C31.1921 51.406 31.0947 51.432 30.9364 51.484C30.6197 51.575 30.4004 51.666 30.2908 51.757C30.1812 51.848 30.1203 51.9521 30.1203 52.0951C30.1203 52.2251 30.1934 52.485 30.3517 52.888C30.5101 53.291 30.7658 53.902 31.1312 54.708C31.1556 54.786 31.18 54.8511 31.2043 54.9031C31.2287 54.9551 31.253 55.0331 31.2896 55.1111C31.3261 55.2021 31.3748 55.319 31.4357 55.475C31.4966 55.631 31.5819 55.8391 31.7037 56.1121C31.7281 56.1901 31.7646 56.268 31.8011 56.359C31.8377 56.45 31.8742 56.528 31.9229 56.606C31.9473 56.71 31.9838 56.814 32.0326 56.905C32.0813 56.996 32.1178 57.087 32.1665 57.191L32.9583 59.2451C33.0435 58.9071 33.1288 58.569 33.2262 58.257C33.3115 57.945 33.4089 57.607 33.5185 57.256C33.6282 56.905 33.7499 56.5151 33.8961 56.0861C34.0301 55.6571 34.2006 55.1631 34.3955 54.6041C34.4199 54.4741 34.4808 54.2921 34.566 54.0451C34.6513 53.7981 34.7365 53.525 34.834 53.226L34.5538 52.472C34.432 52.238 34.2859 52.056 34.1154 51.913C33.9448 51.77 33.6891 51.64 33.348 51.51C33.2019 51.458 33.1044 51.419 33.0679 51.38C33.0192 51.341 33.007 51.2891 33.007 51.2111C33.007 51.0421 33.0435 50.951 33.1166 50.951C33.1653 50.951 33.2018 50.9511 33.2506 50.9771C33.2993 50.9771 33.3724 50.9771 33.4698 50.9771C33.5673 50.9771 33.6891 50.9901 33.823 51.0031C33.957 51.0031 34.091 51.0161 34.225 51.0291C34.359 51.0291 34.4808 51.0291 34.5904 51.0291H35.4917C35.6379 51.0291 35.8084 51.0291 35.9911 51.0291C36.186 51.0291 36.3687 51.0161 36.5392 51.0031C36.7097 51.0031 36.868 50.9901 37.002 50.9771C37.136 50.9771 37.2213 50.9771 37.27 50.9771C37.2943 50.9641 37.3309 50.951 37.3552 50.951C37.4283 50.951 37.4649 51.0421 37.4649 51.2111C37.4649 51.2891 37.4283 51.341 37.3674 51.38C37.3065 51.419 37.136 51.4841 36.8802 51.5621C36.4905 51.7051 36.2834 51.8871 36.2834 52.0951C36.2834 52.2381 36.3199 52.433 36.3808 52.68C36.4417 52.927 36.5635 53.304 36.7462 53.798C36.8315 54.058 36.9168 54.2921 36.9777 54.4611C37.0386 54.6431 37.0873 54.773 37.1238 54.851C37.2091 55.163 37.2822 55.41 37.3431 55.592C37.404 55.774 37.4527 55.9301 37.5014 56.0861C37.5501 56.2421 37.5867 56.3851 37.6354 56.5281C37.6841 56.6711 37.7328 56.866 37.8059 57.1L38.4393 59.232C38.6342 58.634 38.7925 58.1271 38.9265 57.7111C39.0605 57.2951 39.2066 56.879 39.3406 56.476C39.4746 56.073 39.6329 55.657 39.7913 55.215C39.9496 54.773 40.1445 54.227 40.3881 53.59C40.5951 52.992 40.7291 52.589 40.8144 52.355C40.8996 52.134 40.9362 51.978 40.9362 51.9C40.9362 51.796 40.8875 51.705 40.8022 51.64C40.7169 51.575 40.5586 51.523 40.3394 51.471C39.9983 51.393 39.84 51.302 39.84 51.185C39.8522 51.055 39.8643 50.99 39.8765 50.964C39.8765 50.938 39.9131 50.925 39.9496 50.925H40.047C40.047 50.925 40.1201 50.925 40.1688 50.951C40.2176 50.951 40.2906 50.951 40.4246 50.951C40.5464 50.951 40.6926 50.9641 40.8387 50.9771C40.9971 50.9771 41.1432 50.9901 41.3138 51.0031C41.4721 51.0031 41.6183 51.0031 41.7279 51.0031C41.9228 51.0031 42.142 51.0031 42.4221 51.0031C42.6901 51.0031 42.8728 50.977 42.9581 50.951L43.2626 50.925C43.3357 50.925 43.3722 51.0161 43.3722 51.2111C43.3722 51.2891 43.3357 51.341 43.2748 51.38C43.2139 51.406 43.092 51.445 42.9093 51.471C42.4952 51.562 42.2029 51.731 42.0324 51.965C41.8984 52.251 41.7401 52.628 41.5452 53.109C41.3503 53.59 41.1554 54.1231 40.9362 54.6951C40.7291 55.2671 40.5221 55.865 40.3272 56.476C40.1323 57.087 39.9496 57.6461 39.7913 58.1791C39.6329 58.6991 39.4989 59.154 39.4015 59.5181C39.3041 59.8821 39.2675 60.129 39.2797 60.246L37.2456 60.3371L37.1847 60.35Z" fill="#005F07"/>
<path id="Vector_14" d="M52.0566 46.4011C52.0566 46.1801 51.9835 46.0241 51.8251 45.9201C51.6668 45.8161 51.3745 45.7381 50.936 45.6991C50.5097 45.6471 50.2539 45.6081 50.1565 45.5561C50.059 45.5041 50.0103 45.4131 50.0103 45.2701C50.0103 45.1791 50.0347 45.1141 50.0956 45.0881C50.1565 45.0621 50.2661 45.0361 50.4244 45.0361L53.2502 44.7501C53.6278 44.7241 54.115 44.6851 54.7118 44.6591C55.3086 44.6331 55.8567 44.6071 56.3683 44.6071C57.4523 44.6071 58.4511 44.6851 59.389 44.8281C60.3146 44.9711 61.1307 45.1791 61.8371 45.4521C63.2987 46.0241 64.4193 46.9081 65.1867 48.1041C65.954 49.3001 66.3316 50.7561 66.3316 52.4721C66.3316 55.1371 65.4424 57.1911 63.652 58.6211C62.8359 59.2711 61.898 59.7781 60.8384 60.1161C59.7787 60.4541 58.6216 60.6361 57.3671 60.6361C57.16 60.6361 56.9773 60.6361 56.819 60.6361C56.6606 60.6361 56.4779 60.6101 56.2709 60.5971C56.0638 60.5841 55.8202 60.5581 55.5522 60.5191C55.2721 60.4801 54.9189 60.4281 54.5048 60.3631C54.1515 60.3111 53.8714 60.2851 53.6765 60.2721C53.4695 60.2591 53.2259 60.2461 52.9335 60.2461C52.4829 60.2461 52.0687 60.2461 51.6912 60.2721C51.3136 60.2851 51.0091 60.3111 50.7533 60.3371C50.668 60.3501 50.5828 60.3631 50.4853 60.3761C50.4001 60.3761 50.327 60.3761 50.2905 60.3761C50.1199 60.3761 50.0225 60.3111 50.0225 60.1681C50.0225 60.0381 50.0712 59.9601 50.1808 59.9081C50.2783 59.8561 50.5462 59.7781 50.9725 59.6481C51.3988 59.5181 51.679 59.4011 51.8373 59.2841C51.9957 59.1671 52.0687 58.9981 52.0687 58.7771V46.3751L52.0566 46.4011ZM53.7252 58.1011C53.7252 58.6341 54.0175 59.0241 54.6022 59.2711C55.1868 59.5181 56.1125 59.6481 57.3914 59.6481C59.6691 59.6481 61.3987 59.1151 62.5679 58.0621C63.7372 56.9961 64.3219 55.4231 64.3219 53.3301C64.3219 50.8601 63.6276 48.9621 62.2391 47.6361C60.8506 46.2971 58.8896 45.6341 56.3439 45.6341C55.4183 45.6341 54.7605 45.6991 54.3464 45.8161C53.9323 45.9461 53.7374 46.1411 53.7374 46.4011V58.1011H53.7252Z" fill="#005F07"/>
<path id="Vector_15" d="M69.2183 52.0431C69.2183 51.8871 69.1695 51.7831 69.0721 51.7181C68.9747 51.6531 68.7432 51.5751 68.3657 51.4841C68.2073 51.4321 68.0977 51.3931 68.049 51.3671C68.0002 51.3411 67.9759 51.2761 67.9759 51.1981C67.9759 51.0291 68.0124 50.9381 68.0855 50.9381H68.1708C68.2926 50.9641 68.4996 50.9901 68.8041 51.0031C69.1086 51.0161 69.3766 51.0291 69.6202 51.0291H70.5459C70.7529 51.0291 71.0087 51.0291 71.3132 51.0031C71.6177 50.9901 71.8248 50.9641 71.9222 50.9381H72.0075C72.0806 50.9381 72.1171 51.0291 72.1171 51.1981C72.1171 51.2761 72.0928 51.3281 72.0319 51.3671C71.9709 51.4061 71.8004 51.4581 71.5081 51.5361C71.0818 51.6661 70.8747 51.8351 70.8747 52.0561V59.2581C70.8747 59.4921 71.0818 59.6611 71.5081 59.7781C71.7517 59.8431 71.9222 59.8951 72.0075 59.9341C72.0927 59.9731 72.1293 60.0381 72.1293 60.1161C72.1293 60.2851 72.0806 60.3761 71.9709 60.3761C71.9588 60.3761 71.9222 60.3761 71.8491 60.3761C71.7882 60.3761 71.703 60.3501 71.6177 60.3371C71.5325 60.3241 71.3619 60.3111 71.1183 60.2981C70.8747 60.2981 70.6555 60.2981 70.4606 60.2981H69.5837C69.3644 60.2981 69.1086 60.2981 68.8041 60.3241C68.4996 60.3371 68.3047 60.3501 68.2195 60.3761C68.1708 60.3891 68.1342 60.4021 68.0855 60.4021C68.0124 60.4021 67.9759 60.3111 67.9759 60.1421C67.9759 60.0641 68.0124 60.0121 68.0977 59.9601C68.183 59.9211 68.3535 59.8691 68.6092 59.8041C69.0234 59.7001 69.2183 59.5181 69.2183 59.2841V52.0821V52.0431Z" fill="#005F07"/>
<path id="Vector_16" d="M75.223 52.017C75.223 51.783 75.016 51.64 74.614 51.601C74.3339 51.575 74.1633 51.549 74.0903 51.523C74.0172 51.497 73.9807 51.445 73.9807 51.367C73.9807 51.302 73.9806 51.25 74.005 51.211C74.0172 51.172 74.0537 51.146 74.1268 51.12C74.1877 51.094 74.2973 51.081 74.4435 51.055C74.5897 51.042 74.7967 51.016 75.0769 50.99C75.1987 50.977 75.3448 50.964 75.5397 50.951C75.7346 50.951 75.966 50.925 76.2583 50.886C76.5506 50.86 76.843 50.834 77.1475 50.821C77.452 50.808 77.6956 50.795 77.9026 50.795C79.0597 50.795 79.9489 50.977 80.5822 51.354C81.2156 51.731 81.5201 52.264 81.5201 52.94C81.5201 53.486 81.2765 54.006 80.8137 54.5C80.3386 54.994 79.7175 55.358 78.9623 55.592C79.279 55.839 79.5591 56.06 79.7905 56.255C80.022 56.45 80.229 56.645 80.4117 56.827C80.5944 57.009 80.7528 57.204 80.8867 57.373C81.0207 57.555 81.1547 57.75 81.2765 57.971C81.9342 59.05 82.6163 59.713 83.3106 59.96C83.4567 60.025 83.5298 60.09 83.5298 60.142C83.5298 60.246 83.4689 60.311 83.3593 60.311C82.4336 60.311 81.6419 60.051 80.972 59.557C80.3021 59.05 79.6809 58.244 79.1328 57.139C78.8405 56.593 78.5238 56.19 78.1706 55.93C77.8174 55.67 77.3911 55.54 76.8795 55.514V59.232C76.8795 59.453 77.0866 59.609 77.4885 59.726C77.7565 59.804 77.927 59.856 78.0122 59.895C78.0975 59.934 78.1341 59.986 78.1219 60.051C78.1097 60.181 78.0975 60.246 78.0853 60.272C78.0853 60.298 78.0488 60.311 77.9879 60.311H77.927C77.927 60.311 77.793 60.311 77.6225 60.285C77.4885 60.272 77.318 60.259 77.0866 60.246C76.8551 60.246 76.6481 60.246 76.4654 60.246H75.5884C75.4666 60.246 75.3448 60.246 75.2108 60.246C75.0769 60.246 74.9307 60.259 74.8089 60.272C74.6749 60.272 74.5653 60.285 74.4557 60.298C74.3582 60.298 74.2852 60.298 74.2364 60.298C74.1877 60.311 74.1512 60.324 74.1025 60.324C74.0294 60.324 73.9928 60.233 73.9928 60.064C73.9928 59.986 74.0294 59.934 74.1146 59.882C74.1999 59.843 74.3704 59.791 74.6262 59.726C75.0403 59.622 75.2352 59.44 75.2352 59.206V51.978L75.223 52.017ZM76.8673 54.617C77.2936 54.747 77.5859 54.825 77.7443 54.877C77.9026 54.929 78.0731 55.007 78.2437 55.111C78.7309 54.981 79.0963 54.76 79.3642 54.435C79.6322 54.11 79.754 53.72 79.754 53.265C79.754 52.81 79.5835 52.459 79.2303 52.186C78.877 51.913 78.3898 51.783 77.7565 51.783C77.4154 51.783 77.184 51.822 77.05 51.9C76.916 51.978 76.8551 52.108 76.8551 52.277V54.617H76.8673Z" fill="#005F07"/>
<path id="Vector_17" d="M91.7148 58.166C91.7148 58.166 91.7879 58.166 91.8001 58.192C91.7392 58.296 91.6783 58.439 91.6295 58.595C91.5808 58.751 91.5199 58.933 91.4712 59.102C91.4225 59.271 91.3859 59.44 91.3494 59.622C91.3129 59.804 91.3007 59.934 91.3007 60.038C91.2885 60.168 91.2763 60.259 91.2641 60.324C91.2641 60.389 91.2641 60.428 91.2641 60.441C91.2398 60.467 91.1667 60.493 91.0693 60.493C90.9718 60.493 90.85 60.454 90.716 60.376C90.5699 60.298 90.3263 60.259 89.9974 60.259H85.8927C85.7709 60.259 85.6491 60.259 85.5152 60.259C85.3812 60.259 85.2472 60.272 85.1254 60.285C84.9914 60.285 84.8818 60.298 84.7722 60.311C84.6747 60.311 84.6017 60.311 84.5529 60.311C84.5042 60.324 84.4555 60.337 84.3946 60.337C84.3215 60.337 84.285 60.246 84.285 60.077C84.285 59.999 84.3337 59.947 84.419 59.895C84.5042 59.856 84.6869 59.804 84.9427 59.726C85.3203 59.622 85.5152 59.466 85.5152 59.258V52.056C85.5152 51.926 85.4664 51.835 85.3568 51.757C85.2594 51.679 85.0767 51.614 84.8331 51.549C84.4677 51.458 84.285 51.341 84.285 51.224C84.285 51.055 84.3215 50.964 84.3946 50.964C84.4555 50.964 84.5042 50.964 84.5529 50.99C84.6382 51.003 84.8574 51.016 85.2228 51.029C85.5761 51.029 85.9415 51.029 86.3069 51.029L90.0096 51.003C90.2776 50.99 90.4603 50.977 90.5821 50.951C90.7039 50.938 90.7891 50.899 90.8622 50.86C90.9596 50.808 91.0571 50.795 91.1423 50.795C91.2276 50.795 91.2763 50.795 91.2763 50.821V50.873L91.252 51.198L91.2276 51.523V51.575C91.2276 51.861 91.2398 52.121 91.2763 52.381C91.3007 52.641 91.3616 52.862 91.4347 53.044C91.4103 53.096 91.325 53.109 91.1911 53.109C91.0936 53.109 91.0327 53.044 91.0205 52.927C90.8987 52.563 90.7648 52.316 90.6186 52.16C90.4603 52.017 90.2654 51.939 90.0096 51.939H88.5358C88.0242 51.939 87.671 52.004 87.464 52.134C87.2569 52.264 87.1595 52.511 87.1595 52.875V54.799C87.1595 54.942 87.2204 55.007 87.3544 55.007H89.6077C89.8025 55.007 89.9365 54.968 90.0218 54.903C90.107 54.838 90.2288 54.682 90.375 54.448C90.3994 54.37 90.4603 54.331 90.5333 54.331H90.6673V54.357H90.7526C90.6917 54.591 90.6551 54.799 90.6186 54.994C90.5821 55.189 90.5699 55.358 90.5455 55.514C90.5212 55.67 90.509 55.839 90.4968 56.008C90.4968 56.177 90.4968 56.359 90.4968 56.554V56.619C90.4968 56.619 90.4359 56.645 90.4115 56.645H90.3263C90.2288 56.645 90.1679 56.606 90.1558 56.528C90.0705 56.125 89.8513 55.917 89.5224 55.917H87.3787C87.2447 55.917 87.1838 55.982 87.1838 56.099V58.374C87.1838 58.738 87.2813 58.985 87.464 59.128C87.6588 59.271 87.9999 59.336 88.4993 59.336H90.0096C90.2897 59.336 90.5333 59.258 90.7282 59.115C90.9353 58.972 91.1423 58.712 91.3616 58.361C91.4347 58.231 91.5199 58.179 91.6052 58.179H91.7392L91.7148 58.166Z" fill="#005F07"/>
<path id="Vector_18" d="M101.361 53.7461C101.361 53.7461 101.264 53.7981 101.252 53.7981H101.093C101.093 53.7981 100.959 53.7331 100.874 53.6161C100.789 53.4861 100.655 53.2781 100.484 52.9661C100.363 52.7451 100.253 52.5891 100.131 52.4721C100.009 52.3681 99.8632 52.2641 99.6683 52.1861C99.1446 51.9261 98.5599 51.7831 97.9144 51.7831C96.8791 51.7831 96.0996 52.1081 95.5637 52.7581C95.0399 53.4081 94.772 54.3571 94.772 55.6311C94.772 56.2031 94.8572 56.7361 95.0156 57.2041C95.1739 57.6851 95.3932 58.0881 95.6855 58.4391C95.9656 58.7771 96.3188 59.0501 96.7208 59.2321C97.1227 59.4141 97.5612 59.5181 98.0484 59.5181C98.6574 59.5181 99.1446 59.4531 99.4856 59.3231C99.8267 59.1931 100.107 58.9721 100.314 58.6601C100.46 58.4391 100.545 58.3091 100.594 58.2571C100.631 58.2051 100.667 58.1141 100.691 57.9841C100.777 57.7241 100.911 57.5811 101.081 57.5811H101.3C101.398 57.5811 101.459 57.5941 101.459 57.6331C101.459 57.6461 101.447 57.6981 101.41 57.7761C101.361 57.9061 101.313 58.0881 101.24 58.3481C101.166 58.6081 101.118 58.8421 101.081 59.0631L101.057 59.1541V59.1801C101.057 59.1801 101.02 59.2841 100.947 59.3621C100.643 59.7001 100.18 59.9861 99.5587 60.1941C98.9375 60.4021 98.2798 60.5061 97.5977 60.5061C96.197 60.5061 95.0886 60.1291 94.2604 59.3621C93.4443 58.5951 93.0302 57.5551 93.0302 56.2551C93.0302 55.5271 93.1764 54.8251 93.4565 54.1751C93.7367 53.5251 94.1264 52.9401 94.6258 52.4461C95.1252 51.9521 95.6977 51.5491 96.331 51.2631C96.9766 50.9771 97.6586 50.8341 98.3894 50.8341C98.5356 50.8341 98.6574 50.8341 98.767 50.8341C98.8766 50.8341 98.9863 50.8601 99.0837 50.8731C99.1811 50.8861 99.2908 50.9121 99.4126 50.9381C99.5344 50.9641 99.6805 51.0031 99.851 51.0551C100.095 51.1201 100.277 51.1461 100.375 51.1461C100.46 51.1461 100.533 51.1201 100.594 51.0551C100.655 50.9901 100.752 50.9641 100.874 50.9641H100.984C100.984 50.9641 101.057 50.9641 101.057 51.0031C101.057 51.0291 101.057 51.0811 101.057 51.1851C101.069 51.4321 101.081 51.6531 101.081 51.8351C101.081 52.0171 101.081 52.1601 101.106 52.2641C101.13 52.4071 101.154 52.5371 101.166 52.6671C101.179 52.7971 101.191 52.9141 101.215 53.0441L101.325 53.7461V53.7981L101.361 53.7461Z" fill="#005F07"/>
<path id="Vector_19" d="M107.476 52.888C107.476 52.667 107.476 52.498 107.451 52.368C107.439 52.238 107.403 52.147 107.33 52.082C107.269 52.017 107.159 51.978 107.025 51.965C106.891 51.952 106.696 51.939 106.465 51.939H104.93C104.687 51.939 104.492 52.004 104.345 52.147C104.211 52.29 104.065 52.55 103.944 52.914C103.895 53.044 103.834 53.096 103.749 53.096C103.603 53.096 103.529 53.07 103.529 53.031C103.529 53.005 103.529 52.979 103.554 52.966C103.578 52.862 103.615 52.641 103.663 52.316C103.712 51.991 103.724 51.718 103.724 51.523C103.724 51.51 103.724 51.445 103.724 51.341C103.724 51.237 103.7 51.081 103.688 50.873V50.847C103.688 50.847 103.712 50.795 103.749 50.795H103.883C103.883 50.795 104.029 50.821 104.151 50.886C104.248 50.964 104.516 51.003 104.942 51.003H105.758C105.917 51.003 106.051 51.003 106.148 51.029H110.155C110.277 51.029 110.496 51.029 110.837 51.003H111.471C111.861 51.003 112.177 50.964 112.396 50.886C112.53 50.821 112.664 50.795 112.786 50.795H112.835L112.859 50.821C112.859 50.821 112.92 50.873 112.92 50.964C112.92 51.094 112.896 51.276 112.859 51.523C112.847 51.614 112.835 51.692 112.823 51.757C112.823 51.822 112.823 51.9 112.823 51.991C112.823 52.082 112.823 52.212 112.823 52.355C112.823 52.498 112.798 52.693 112.786 52.927C112.786 53.031 112.786 53.096 112.762 53.109C112.738 53.122 112.701 53.135 112.604 53.135C112.506 53.135 112.457 53.122 112.433 53.083C112.409 53.057 112.372 52.992 112.348 52.914C112.275 52.55 112.177 52.303 112.055 52.147C111.934 52.004 111.739 51.926 111.495 51.926H110.021C109.814 51.926 109.656 51.926 109.534 51.952C109.412 51.965 109.327 52.004 109.266 52.069C109.205 52.134 109.169 52.225 109.157 52.355C109.144 52.485 109.132 52.654 109.132 52.875V59.245C109.132 59.479 109.339 59.648 109.766 59.765C110.034 59.83 110.192 59.882 110.265 59.921C110.338 59.96 110.375 60.025 110.375 60.103C110.375 60.272 110.338 60.363 110.265 60.363H110.18C110.058 60.35 109.851 60.324 109.546 60.311C109.242 60.285 108.962 60.272 108.718 60.272H107.841C107.622 60.272 107.366 60.272 107.062 60.298C106.757 60.311 106.574 60.324 106.477 60.35C106.428 60.363 106.392 60.376 106.343 60.376C106.27 60.376 106.233 60.285 106.233 60.116C106.233 60.038 106.27 59.986 106.355 59.934C106.44 59.895 106.611 59.843 106.867 59.778C107.281 59.674 107.476 59.492 107.476 59.258V52.888Z" fill="#005F07"/>
<path id="Vector_20" d="M116.708 52.0431C116.708 51.8871 116.66 51.7831 116.562 51.7181C116.465 51.6531 116.233 51.5751 115.856 51.4841C115.697 51.4321 115.588 51.3931 115.539 51.3671C115.49 51.3411 115.466 51.2761 115.466 51.1981C115.466 51.0291 115.502 50.9381 115.575 50.9381H115.661C115.783 50.9641 115.99 50.9901 116.294 51.0031C116.599 51.0161 116.867 51.0291 117.11 51.0291H118.036C118.243 51.0291 118.499 51.0291 118.803 51.0031C119.108 50.9901 119.315 50.9641 119.412 50.9381H119.497C119.571 50.9381 119.607 51.0291 119.607 51.1981C119.607 51.2761 119.583 51.3281 119.522 51.3671C119.461 51.4061 119.29 51.4581 118.998 51.5361C118.572 51.6661 118.365 51.8351 118.365 52.0561V59.2581C118.365 59.4921 118.572 59.6611 118.998 59.7781C119.242 59.8431 119.412 59.8951 119.497 59.9341C119.583 59.9731 119.619 60.0381 119.619 60.1161C119.619 60.2851 119.571 60.3761 119.461 60.3761C119.449 60.3761 119.412 60.3761 119.339 60.3761C119.278 60.3761 119.193 60.3501 119.108 60.3371C119.022 60.3241 118.852 60.3111 118.608 60.2981C118.365 60.2981 118.146 60.2981 117.951 60.2981H117.074C116.854 60.2981 116.599 60.2981 116.294 60.3241C115.99 60.3371 115.795 60.3501 115.709 60.3761C115.661 60.3891 115.624 60.4021 115.575 60.4021C115.502 60.4021 115.466 60.3111 115.466 60.1421C115.466 60.0641 115.502 60.0121 115.588 59.9601C115.673 59.9211 115.843 59.8691 116.099 59.8041C116.513 59.7001 116.708 59.5181 116.708 59.2841V52.0821V52.0431Z" fill="#005F07"/>
<path id="Vector_21" d="M126.172 50.795C126.806 50.795 127.39 50.912 127.938 51.146C128.486 51.38 128.974 51.705 129.388 52.121C129.802 52.537 130.131 53.018 130.374 53.564C130.618 54.11 130.74 54.682 130.74 55.293C130.74 55.982 130.594 56.632 130.301 57.256C130.009 57.88 129.619 58.439 129.144 58.92C128.669 59.401 128.109 59.791 127.463 60.064C126.818 60.337 126.172 60.48 125.478 60.48C124.784 60.48 124.211 60.376 123.675 60.168C123.127 59.96 122.652 59.661 122.262 59.297C121.873 58.92 121.556 58.478 121.337 57.945C121.117 57.425 121.008 56.84 121.008 56.203C121.008 55.488 121.142 54.799 121.422 54.149C121.702 53.499 122.08 52.927 122.555 52.433C123.03 51.939 123.578 51.549 124.211 51.25C124.845 50.951 125.502 50.808 126.184 50.808L126.172 50.795ZM125.843 51.783C125.417 51.783 125.015 51.887 124.637 52.082C124.26 52.29 123.931 52.563 123.651 52.914C123.371 53.265 123.152 53.681 122.993 54.149C122.835 54.63 122.75 55.124 122.75 55.657C122.75 56.216 122.823 56.736 122.969 57.217C123.115 57.698 123.322 58.101 123.59 58.439C123.858 58.777 124.187 59.037 124.564 59.219C124.942 59.401 125.356 59.505 125.819 59.505C126.769 59.505 127.536 59.167 128.109 58.504C128.681 57.828 128.974 56.944 128.974 55.839C128.974 55.267 128.888 54.734 128.73 54.24C128.572 53.746 128.352 53.317 128.072 52.966C127.792 52.602 127.463 52.329 127.073 52.108C126.684 51.887 126.27 51.796 125.831 51.796L125.843 51.783Z" fill="#005F07"/>
<path id="Vector_22" d="M141.129 52.043C141.129 51.913 141.081 51.822 140.971 51.744C140.861 51.666 140.691 51.601 140.447 51.523C140.216 51.458 140.057 51.419 139.997 51.38C139.936 51.354 139.899 51.2891 139.899 51.2111C139.899 51.1851 139.899 51.1461 139.899 51.1201C139.899 51.0941 139.923 51.029 139.936 50.951C140.167 50.977 140.423 51.003 140.715 51.016C140.995 51.029 141.275 51.042 141.556 51.042C141.775 51.042 142.018 51.042 142.299 51.042C142.579 51.042 142.774 51.0161 142.895 51.0031C142.944 50.9901 142.981 50.977 143.017 50.977H143.115C143.188 50.977 143.224 51.0681 143.224 51.2371C143.224 51.3021 143.188 51.341 143.127 51.38C143.066 51.406 142.908 51.458 142.652 51.523C142.408 51.588 142.225 51.653 142.14 51.731C142.043 51.809 141.994 51.913 141.994 52.03V60.246C141.787 60.246 141.592 60.246 141.385 60.272C141.19 60.285 141.056 60.3111 140.983 60.3371L134.077 52.849L134.138 59.258C134.138 59.388 134.187 59.479 134.272 59.557C134.357 59.635 134.515 59.7 134.759 59.765C135.003 59.83 135.173 59.882 135.246 59.921C135.332 59.96 135.368 60.012 135.368 60.077C135.368 60.246 135.319 60.3371 135.234 60.3371H135.161C135.161 60.3371 135.088 60.337 135.039 60.311C134.942 60.298 134.735 60.285 134.43 60.259C134.126 60.246 133.858 60.233 133.614 60.233L132.457 60.285C132.457 60.285 132.347 60.311 132.311 60.324C132.274 60.324 132.238 60.324 132.213 60.324C132.092 60.324 132.043 60.233 132.043 60.064C132.043 59.986 132.079 59.9341 132.165 59.8951C132.25 59.8561 132.408 59.817 132.664 59.752C133.078 59.648 133.273 59.466 133.273 59.232V52.771C133.273 52.446 133.237 52.212 133.176 52.056C133.115 51.913 132.969 51.7701 132.749 51.6531C132.554 51.5491 132.347 51.458 132.116 51.393C132.055 51.38 132.031 51.341 132.031 51.302V51.276C132.031 51.029 132.055 50.899 132.092 50.899H132.14C132.262 50.925 132.445 50.951 132.701 50.964C132.956 50.977 133.188 50.99 133.395 50.99C133.639 50.99 133.87 50.99 134.089 50.964C134.296 50.951 134.467 50.925 134.576 50.899L141.202 58.0621L141.141 52.0041L141.129 52.043Z" fill="#005F07"/>
</g>
</g>
</svg>
